# xmcd
#
# Track frame offsets:
#	150
#	14720
#	29220
#	40760
#	55710
#	69848
#	81813
#	100507
#	117665
#	136136
#	159539
#	182196
#	200284
#	223951
#	240287
#	269621
#	285344
#	309889
#	324919
#
# Disc length: 4603 seconds
# Revision: 0
# Processed by: cddbd v1.5.2PL0 Copyright (c) Steve Scherf et al.
# Submitted via: dBpowerAMP V12.0
#
DISCID=0811f913
DTITLE=Hey Gringo - I Was There*/Funky Car
DYEAR=2003
DGENRE=Blues
TTITLE0=Face Myself (with Ross Hannaford)*
TTITLE1=Soul*
TTITLE2=Treat Me Mean*
TTITLE3=Go Your Own Way (with Ross Hannaford)*
TTITLE4=End Of The Road (with Ross Hannaford)*
TTITLE5=Only Thing I Need*
TTITLE6=Let It All Hang Out (with Ross Hannaford)*
TTITLE7=Never Let Go
TTITLE8=Now's The Time
TTITLE9=Old Country Radio (with Ross Wilson)
TTITLE10=Funky Car
TTITLE11=12th Bar Blues
TTITLE12=Gimme Back My Brain
TTITLE13=What's Been Going On (with Broderick Smith)
TTITLE14=Moonslap (with Nicky Bomba and Bill Putt)
TTITLE15=What is it With A Woman (with Ross Wilson,Mike Rudd,Brod Smith)
TTITLE16=Outta My Tree (with Broderick Smith)
TTITLE17=Tell Me Something (with Broderick Smith)
TTITLE18=I was There*
EXTD=
EXTT0=
EXTT1=
EXTT2=
EXTT3=
EXTT4=
EXTT5=
EXTT6=
EXTT7=
EXTT8=
EXTT9=
EXTT10=
EXTT11=
EXTT12=
EXTT13=
EXTT14=
EXTT15=
EXTT16=
EXTT17=
EXTT18=
PLAYORDER=
